# xmcd
#
# Track frame offsets: 
#        150
#        17792
#        32773
#        52449
#        71065
#        89614
#        105576
#        122096
#        139753
#        157900
#        173741
#        192282
#        210473
#        227611
#        245376
#        267247
#        287187
#        305552
#        322512
#        341547
#
# Disc length: 4787 seconds
#
# Revision: 2
# Processed by: cddbd v1.5.2PL0 Copyright (c) Steve Scherf et al.
# Submitted via: ExactAudioCopy v0.99pb5
#
DISCID=1e12b114
DTITLE=Various Artist - 100 R&B Classics Original Anthems CD3
DYEAR=2009
DGENRE=R&B
TTITLE0=Afrika Bambaataa and The Soul Sonic Force - Planet Rock
TTITLE1=House Of Pain - Shamrocks And Shenanigans
TTITLE2=De La Soul  with Jungle Bros and Q-Tip - Buddy
TTITLE3=Apache - Gangsta Bitch
TTITLE4=Noreaga - Superthug
TTITLE5=MC Lyte - When In Love
TTITLE6=Ginuwine - Pony
TTITLE7=Coolio - AThing Goin' On
TTITLE8=Trey Songz - Gotta Make It (feat Twista)
TTITLE9=Shola Ama - Much Love
TTITLE10=K7 - Hi De Ho
TTITLE11=Tamia - Officially Missing You
TTITLE12=Danity Kane - Damaged
TTITLE13=Lil' Mo - 4 Ever
TTITLE14=Joe - I Wanna Know
TTITLE15=The Braxtons - Only Love
TTITLE16=Sugababes - Overload
TTITLE17=Laura Izibor - From My Heart To Yours
TTITLE18=Natty - Bedroom Eyes
TTITLE19=Sean Paul - Give It Up To Me
EXTD=
EXTT0=
EXTT1=
EXTT2=
EXTT3=
EXTT4=
EXTT5=
EXTT6=
EXTT7=
EXTT8=
EXTT9=
EXTT10=
EXTT11=
EXTT12=
EXTT13=
EXTT14=
EXTT15=
EXTT16=
EXTT17=
EXTT18=
EXTT19=
PLAYORDER=
